<svg width="24" height="24" viewBox="0 0 24 24" fill="none" xmlns="http://www.w3.org/2000/svg">
<path d="M13.8889 16.7619L15.2381 19.1904M8.76194 19.1904L10.1111 16.7619M16.0476 19.1904H7.95242M12 16.7619C8.42334 16.7619 5.52386 13.8624 5.52386 10.2857C5.52386 6.70904 8.42334 3.80957 12 3.80957C15.5767 3.80957 18.4762 6.70904 18.4762 10.2857C18.4762 13.8624 15.5767 16.7619 12 16.7619ZM12 14.3333C10.6588 14.3333 9.57146 13.246 9.57146 11.9048C9.57146 10.5635 10.6588 9.4762 12 9.4762C13.3413 9.4762 14.4286 10.5635 14.4286 11.9048C14.4286 13.246 13.3413 14.3333 12 14.3333Z" stroke="#ABB6BA" stroke-width="1.5" stroke-linecap="round"/>
</svg>
