<svg width="48" height="48" viewBox="0 0 48 48" fill="none" xmlns="http://www.w3.org/2000/svg">
<path d="M24.0824 5.82294C31.4498 2.92528 39.7682 6.54735 42.6659 13.9147C45.5636 21.2772 41.9415 29.6006 34.5741 32.4982C30.3656 34.154 25.8466 33.6809 22.2048 31.5964L31.1147 32.0596L31.7208 25.2491L21.7268 25.3181L24.9547 16.4083L18.2969 14.0971L15.9561 23.8052L15.7097 23.6426C13.3394 16.4674 16.9614 8.61712 24.0725 5.81801L24.0824 5.82294Z" fill="#00BBFF"/>
<path d="M31.7259 25.2497L31.1197 32.0602L22.2099 31.597C19.4748 30.0348 17.2326 27.5659 15.9957 24.407C15.8971 24.1508 15.8035 23.8995 15.7197 23.6432L15.9661 23.8058L18.3069 14.0977L24.9647 16.4089L21.7368 25.3187L31.7308 25.2497H31.7259Z" fill="#1F75FF"/>
<path d="M21.8944 31.5818L25.7481 40.334L19.5585 43.1774L16.2075 33.8192L9.78135 40.4522L5.05541 35.7411L12.0581 29.1228L4.33594 24.52L7.63274 18.291L15.7196 23.6379C15.8034 23.8892 15.8921 24.1455 15.9956 24.4017C17.2374 27.5556 19.4747 30.0246 22.2098 31.5917L21.8944 31.5769V31.5818Z" fill="#2B388F"/>
</svg>
