<svg width="46" height="48" viewBox="0 0 46 48" fill="none" xmlns="http://www.w3.org/2000/svg">
<path d="M45.1944 1.27813V46.7219C45.1944 47.4248 44.6193 48 43.9163 48H14.9412C14.2319 48 13.6631 47.4248 13.6631 46.7219V34.8673L28.6491 26.2144C30.3554 25.2302 30.3554 22.7698 28.6491 21.7856L13.6631 13.1327V1.27813C13.6631 0.575156 14.2319 0 14.9412 0H43.9163C44.6193 0 45.1944 0.575156 45.1944 1.27813Z" fill="#2B388F"/>
<path d="M28.6491 21.7857C30.3554 22.7699 30.3554 25.2303 28.6491 26.2144L13.6631 34.8673V13.1328L28.6491 21.7857Z" fill="#1E75FF"/>
<path d="M13.6632 13.1331V34.8676L3.83438 40.5425C2.13447 41.5266 0 40.2933 0 38.3249V9.67576C0 7.70745 2.13447 6.47406 3.83438 7.45821L13.6632 13.1331Z" fill="#00BDFF"/>
</svg>
