<svg width="48" height="49" viewBox="0 0 48 49" fill="none" xmlns="http://www.w3.org/2000/svg">
<path d="M43.5793 31.6054C43.9588 32.2609 43.4857 33.0838 42.7268 33.0838H21.3639L27.3563 22.7104C27.7358 22.055 27.2578 21.232 26.4989 21.232H19.3828L27.6323 6.94079C28.0118 6.28536 28.9579 6.28536 29.3374 6.94079L43.5793 31.6054Z" fill="#2B388F"/>
<path d="M26.4982 21.2324C27.2571 21.2324 27.7352 22.0554 27.3557 22.7108L21.3632 33.0843H14.2472C13.4883 33.0843 13.0152 32.2613 13.3947 31.6059L19.3822 21.2324H26.4982Z" fill="#1F75FF"/>
<path d="M21.3629 33.0843L16.7405 41.0923C16.361 41.7526 15.4148 41.7526 15.0354 41.0923L4.42044 22.7108C4.04099 22.0554 4.51408 21.2324 5.27299 21.2324H19.3819L13.3943 31.6059C13.0149 32.2613 13.488 33.0843 14.2469 33.0843H21.3629Z" fill="#00BBFF"/>
</svg>
