<svg width="26" height="33" viewBox="0 0 26 33" fill="none" xmlns="http://www.w3.org/2000/svg">
<path d="M25.3595 3.92631V31.3547C25.3595 31.8065 24.9899 32.1761 24.5381 32.1761H1.28618C0.834444 32.1761 0.464844 31.8065 0.464844 31.3547V3.92631C0.464844 3.47458 0.834444 3.10498 1.28618 3.10498H6.30863V16.1724C6.30863 16.8171 7.01083 17.2114 7.55702 16.8746L12.485 13.8521C12.7478 13.692 13.0805 13.692 13.3434 13.8521L18.2672 16.8746C18.8134 17.2114 19.5157 16.8171 19.5157 16.1724V3.10498H24.5381C24.9899 3.10498 25.3595 3.47458 25.3595 3.92631Z" fill="#2B388F"/>
<path d="M19.5157 3.10498V16.1724C19.5157 16.8171 18.8134 17.2114 18.2672 16.8746L13.3433 13.8521C13.0805 13.692 12.7478 13.692 12.485 13.8521L7.55699 16.8746C7.0108 17.2114 6.30859 16.8171 6.30859 16.1724V3.10498H19.5157Z" fill="#1F75FF"/>
<path d="M19.5157 1.12163V3.10515H6.30859V1.12163C6.30859 0.665787 6.67409 0.300293 7.12993 0.300293H18.6943C19.1502 0.300293 19.5157 0.665787 19.5157 1.12163Z" fill="#00BBFF"/>
</svg>
