<svg width="16" height="25" viewBox="0 0 16 25" fill="none" xmlns="http://www.w3.org/2000/svg">
<path d="M16 22.8432V24.7157H0.584167V22.8432C0.584167 21.7701 1.45352 20.8975 2.52986 20.8975H3.47245V19.2607H13.1117V20.8975H14.0543C15.1307 20.8975 16 21.7701 16 22.8432Z" fill="#2B388F"/>
<path d="M14.0738 17.3379C14.6247 17.3379 15.0642 17.7996 15.0355 18.3537C15.0069 18.876 14.5388 19.2645 14.0165 19.2645H13.1089C13.1631 19.0161 13.2427 18.1913 13.4369 17.3379H14.0706H14.0738Z" fill="#2B388F"/>
<path d="M12.5164 3.00086C16.7771 5.84138 15.5798 11.7135 13.771 16.2131C13.6309 16.5602 13.5226 16.9519 13.4367 17.3372H3.59677C3.88974 15.6303 4.63489 14.7259 5.45965 13.9362C7.26523 12.2198 9.40198 10.2263 8.7651 8.61502C7.99128 8.81883 7.29071 8.90162 6.66338 8.85386C6.03286 9.15001 5.88956 9.40157 5.02021 10.2423C4.89602 10.3601 4.70813 10.3728 4.57757 10.2709C3.83241 9.70728 2.51406 8.72648 3.03949 8.04819C3.19553 7.84758 5.20809 5.0803 7.10601 3.52311C8.17279 2.65376 9.644 2.55186 9.644 2.55186C11.905 0.940535 13.357 -0.807719 12.5164 3.00086Z" fill="#00BBFF"/>
<path d="M13.112 17.3379H13.44C13.2457 18.1913 13.1693 19.0129 13.112 19.2645H3.47271C3.45997 18.5225 3.50455 17.8856 3.60008 17.3379H13.112Z" fill="#1F75FF"/>
<path d="M3.47247 17.3379H3.59985C3.50431 17.8856 3.45973 18.5193 3.47247 19.2645H2.51078C1.95987 19.2645 1.52041 18.8027 1.54907 18.2486C1.57773 17.7264 2.04585 17.3379 2.56809 17.3379H3.47566H3.47247Z" fill="#2B388F"/>
</svg>
