<svg width="33" height="33" viewBox="0 0 33 33" fill="none" xmlns="http://www.w3.org/2000/svg">
<path d="M21.7999 10.4795C27.8235 10.4795 32.7024 15.3633 32.7024 21.382C32.7024 27.4008 27.8235 32.2846 21.7999 32.2846C15.7762 32.2846 11.2855 27.7791 10.9219 22.0896C16.9357 22.0748 21.7999 17.2009 21.7999 11.187C21.7999 10.9512 21.79 10.7153 21.7753 10.4795H21.7999Z" fill="#2B388F"/>
<path d="M21.7755 10.4795C21.7902 10.7153 21.8 10.9512 21.8 11.187C21.8 17.2009 16.9359 22.0748 10.922 22.0896C10.9073 21.8586 10.8975 21.6179 10.8975 21.382C10.8975 15.3731 15.7665 10.4942 21.7755 10.4795Z" fill="#1E75FF"/>
<path d="M10.8976 0.28418C16.6855 0.28418 21.4121 4.78965 21.7756 10.4792C15.7667 10.494 10.8976 15.3728 10.8976 21.3818C10.8976 21.6176 10.9075 21.8584 10.9222 22.0893H10.8976C4.87888 22.0893 0 17.2104 0 11.1867C0 5.16306 4.87888 0.28418 10.8976 0.28418Z" fill="#00BDFF"/>
</svg>
