<svg width="48" height="49" viewBox="0 0 48 49" fill="none" xmlns="http://www.w3.org/2000/svg">
<path d="M36.7148 13.8709C37.1713 14.2418 37.1868 14.8957 36.7615 15.2958L33.2235 18.6239C32.85 18.9801 32.2586 18.9996 31.8384 18.6922C30.7127 17.8577 29.3587 17.2868 27.875 17.0819V10.3477C31.2418 10.616 34.3025 11.8994 36.7148 13.8709Z" fill="#2B388F"/>
<path d="M36.7615 34.5668C37.1868 34.9669 37.1713 35.6208 36.72 35.9917C34.3077 37.9632 31.2418 39.2417 27.875 39.5101V32.7808C29.3535 32.5758 30.7127 32.0049 31.8332 31.1753C32.2534 30.8679 32.85 30.8825 33.2287 31.2387L36.7615 34.5668Z" fill="#2B388F"/>
<path d="M27.877 39.5106V43.6341C27.877 44.1709 27.4101 44.61 26.8394 44.61H21.6518C21.076 44.61 20.6143 44.1709 20.6143 43.6341V38.4761C22.4351 39.1788 24.4324 39.5692 26.523 39.5692C26.9795 39.5692 27.4308 39.5496 27.877 39.5106Z" fill="#00BBFF"/>
<path d="M27.877 32.7811V39.5104C27.4308 39.5494 26.9795 39.5689 26.523 39.5689C24.4324 39.5689 22.4351 39.1786 20.6143 38.4759V30.8682C23.0836 32.5761 25.6255 33.0983 27.877 32.7811Z" fill="#1F75FF"/>
<path d="M27.877 17.0825V32.7809C25.6255 33.0981 23.0836 32.576 20.6143 30.868V19.3565C22.1446 17.8974 24.2716 16.9897 26.6268 16.9897C27.0521 16.9897 27.4723 17.019 27.877 17.0825Z" fill="#00BBFF"/>
<path d="M27.877 10.3485V17.0827C27.4723 17.0193 27.0521 16.99 26.6268 16.99C24.2716 16.99 22.1446 17.8976 20.6143 19.3567V11.3147C23.1043 10.4461 25.5633 10.1582 27.877 10.3485Z" fill="#1F75FF"/>
<path d="M27.877 6.22939V10.348C25.5633 10.1577 23.1043 10.4456 20.6143 11.3142V6.22939C20.6143 5.6926 21.076 5.25342 21.6518 5.25342H26.8394C27.4101 5.25342 27.877 5.6926 27.877 6.22939Z" fill="#00BBFF"/>
<path d="M20.6128 30.868V38.4757C12.4163 35.3087 7.69551 25.7735 13.5109 16.4676C15.2072 13.7593 18.102 12.3246 19.5338 11.7292C19.8917 11.578 20.2548 11.4413 20.6128 11.3145V19.3564C17.8581 21.9867 17.0385 26.4274 20.3378 30.6143C20.4053 30.6972 20.4831 30.7753 20.5713 30.8387C20.5868 30.8485 20.5972 30.8583 20.6128 30.868Z" fill="#2B388F"/>
</svg>
