<svg width="48" height="48" viewBox="0 0 48 48" fill="none" xmlns="http://www.w3.org/2000/svg">
<path d="M26.0462 16.3215L18.9416 30.5277C18.696 31.0188 18.895 31.6161 19.3861 31.8617L22.054 33.1959C22.5451 33.4416 23.1424 33.2425 23.388 32.7514L30.4926 18.5452C30.7383 18.054 30.5392 17.4568 30.0481 17.2112L27.3803 15.877C26.8891 15.6313 26.2919 15.8304 26.0462 16.3215Z" fill="#1F75FF"/>
<path d="M39.6005 34.5434C39.6005 38.6598 36.2597 42.0006 32.1433 42.0006H30.6519C30.1051 42.0006 29.6576 41.5532 29.6576 41.0063V38.0234C29.6576 37.4766 30.1051 37.0292 30.6519 37.0292H32.1433C33.5155 37.0292 34.6291 35.9156 34.6291 34.5434V29.572C34.6291 27.663 35.3499 25.918 36.5331 24.6006C37.8953 26.1268 39.8789 27.0863 42.0862 27.0863C40.7141 27.0863 39.6005 28.1999 39.6005 29.572V34.5434Z" fill="#2B388F"/>
<path d="M12.8398 24.6002C11.4776 23.074 9.49404 22.1145 7.28673 22.1145C8.65884 22.1145 9.77244 21.0009 9.77244 19.6288V14.6573C9.77244 10.541 13.1132 7.2002 17.2296 7.2002H18.721C19.2679 7.2002 19.7153 7.64762 19.7153 8.19448V11.1773C19.7153 11.7242 19.2679 12.1716 18.721 12.1716H17.2296C15.8575 12.1716 14.7439 13.2852 14.7439 14.6573V19.6288C14.7439 21.5378 14.023 23.2828 12.8398 24.6002Z" fill="#00BBFF"/>
<path d="M7.28673 27.0863C9.49404 27.0863 11.4776 26.1268 12.8398 24.6006C14.023 25.918 14.7439 27.663 14.7439 29.572V34.5434C14.7439 35.9156 15.8575 37.0292 17.2296 37.0292H18.721C19.2679 37.0292 19.7153 37.4766 19.7153 38.0234V41.0063C19.7153 41.5532 19.2679 42.0006 18.721 42.0006H17.2296C13.1132 42.0006 9.77244 38.6598 9.77244 34.5434V29.572C9.77244 28.1999 8.65884 27.0863 7.28673 27.0863Z" fill="#2B388F"/>
<path d="M34.6291 14.6573C34.6291 13.2852 33.5155 12.1716 32.1433 12.1716H30.6519C30.1051 12.1716 29.6576 11.7242 29.6576 11.1773V8.19448C29.6576 7.64762 30.1051 7.2002 30.6519 7.2002H32.1433C36.2597 7.2002 39.6005 10.541 39.6005 14.6573V19.6288C39.6005 21.0009 40.7141 22.1145 42.0862 22.1145C39.8789 22.1145 37.8953 23.074 36.5331 24.6002C35.3499 23.2828 34.6291 21.5378 34.6291 19.6288V14.6573Z" fill="#00BBFF"/>
<path d="M42.085 27.0857C39.8777 27.0857 37.8941 26.1262 36.5319 24.6C37.8941 23.0737 39.8777 22.1143 42.085 22.1143H43.5765C44.1233 22.1143 44.5707 22.5617 44.5707 23.1085V26.0914C44.5707 26.6383 44.1233 27.0857 43.5765 27.0857H42.085Z" fill="#1F75FF"/>
<path d="M4.8 23.1085C4.8 22.5617 5.24743 22.1143 5.79429 22.1143H7.28572C9.49303 22.1143 11.4766 23.0737 12.8388 24.6C11.4766 26.1262 9.49303 27.0857 7.28572 27.0857H5.79429C5.24743 27.0857 4.8 26.6383 4.8 26.0914V23.1085Z" fill="#1F75FF"/>
</svg>
