<svg width="52" height="48" viewBox="0 0 52 48" fill="none" xmlns="http://www.w3.org/2000/svg">
<path d="M51.7371 1.31128V33.3852C51.7371 34.1793 51.0414 34.7897 50.2538 34.6912L35.0668 32.7026V18.8676C35.0668 18.2047 34.5811 17.6469 33.9248 17.5615L16.6704 15.2973V5.56417C16.6704 4.9013 17.1561 4.35 17.8124 4.26468L50.2538 0.01178C51.0414 -0.0932298 51.7371 0.517139 51.7371 1.31128Z" fill="#26A9E0"/>
<path d="M35.0667 32.7027V42.4358C35.0667 43.0921 34.581 43.65 33.9247 43.7353L1.48326 47.9882C0.69569 48.0932 0 47.4829 0 46.6887V14.6148C0 13.8207 0.69569 13.2103 1.48326 13.3087L16.6703 15.2974V29.1324C16.6703 29.7953 17.156 30.3531 17.8123 30.4385L35.0667 32.7027Z" fill="#2B388F"/>
<path d="M35.0668 18.8677V32.7027L17.8124 30.4385C17.1561 30.3531 16.6704 29.7953 16.6704 29.1324V15.2974L33.9248 17.5616C34.5811 17.647 35.0668 18.2048 35.0668 18.8677Z" fill="#1B75BB"/>
</svg>
