<svg width="26" height="25" viewBox="0 0 26 25" fill="none" xmlns="http://www.w3.org/2000/svg">
<path d="M25.3483 12.9423C25.3691 13.3452 25.0531 13.6821 24.6536 13.6821H22.066C22.066 9.11468 19.2943 5.19679 15.3383 3.51571L16.3455 1.13998C16.5018 0.771814 16.936 0.612039 17.2972 0.789178C19.6 1.90758 21.5659 3.6234 22.983 5.76643C24.4001 7.90598 25.2163 10.3859 25.3483 12.9423Z" fill="#00BBFF"/>
<path d="M22.0661 13.682H12.0804C11.5837 13.682 11.2468 13.1749 11.4413 12.7164L15.3383 3.51562C19.2944 5.1967 22.0661 9.11459 22.0661 13.682Z" fill="#1F75FF"/>
<path d="M12.0803 13.6821H22.066C22.066 19.7743 17.127 24.7168 11.0313 24.7168C4.93569 24.7168 0.00012207 19.7743 0.00012207 13.6821C0.00012207 7.58998 4.93916 2.64746 11.0313 2.64746C12.5596 2.64746 14.0149 2.95658 15.3382 3.51579L11.4412 12.7166C11.2467 13.1751 11.5836 13.6821 12.0803 13.6821Z" fill="#2B388F"/>
</svg>
