<svg width="36" height="32" viewBox="0 0 36 32" fill="none" xmlns="http://www.w3.org/2000/svg">
<path d="M35.0589 5.18094V9.63093C35.0589 11.267 33.5313 12.5976 31.6438 12.5976C31.5551 12.5976 31.4664 12.5927 31.3777 12.5877V6.16654C31.3777 5.61954 30.9391 5.18094 30.3921 5.18094H5.60427C5.06219 5.18094 4.61867 5.61954 4.61867 6.16654V12.5877C4.52997 12.5927 4.44126 12.5976 4.35256 12.5976C2.47006 12.5976 0.942383 11.267 0.942383 9.63093V5.18094L2.16453 1.99746C2.45528 1.23362 3.18955 0.730957 4.00267 0.730957H31.9987C32.8118 0.730957 33.5461 1.23362 33.8368 1.99746L35.0589 5.18094Z" fill="#00BBFF"/>
<path d="M31.3792 12.5881V30.9992C31.3792 31.5413 30.9406 31.9848 30.3936 31.9848H5.60572C5.06364 31.9848 4.62012 31.5413 4.62012 30.9992V12.5881C6.38434 12.4699 7.76911 11.1886 7.76911 9.63135C7.76911 11.2674 9.29679 12.598 11.1793 12.598C13.0618 12.598 14.5895 11.2674 14.5895 9.63135C14.5895 11.2674 16.1171 12.598 17.9996 12.598C19.8821 12.598 21.4148 11.2674 21.4148 9.63135C21.4148 11.2674 22.9424 12.598 24.8249 12.598C26.7074 12.598 28.2351 11.2674 28.2351 9.63135C28.2351 11.1886 29.6199 12.4699 31.3792 12.5881Z" fill="#2B388F"/>
<path d="M31.3792 6.16626V12.5875C29.6199 12.4692 28.2351 11.1879 28.2351 9.63065C28.2351 11.2667 26.7074 12.5973 24.8249 12.5973C22.9424 12.5973 21.4148 11.2667 21.4148 9.63065C21.4148 11.2667 19.8871 12.5973 17.9996 12.5973C16.1122 12.5973 14.5895 11.2667 14.5895 9.63065C14.5895 11.2667 13.0618 12.5973 11.1793 12.5973C9.29679 12.5973 7.76911 11.2667 7.76911 9.63065C7.76911 11.1879 6.38434 12.4692 4.62012 12.5875V6.16626C4.62012 5.61926 5.06364 5.18066 5.60572 5.18066H30.3936C30.9406 5.18066 31.3792 5.61926 31.3792 6.16626Z" fill="#1F75FF"/>
<path d="M13.6751 18.8765H22.3188C22.8609 18.8765 23.3044 19.32 23.3044 19.8621V31.985H12.6895V19.8621C12.6895 19.32 13.133 18.8765 13.6751 18.8765Z" fill="#00BBFF"/>
</svg>
