<svg width="49" height="48" viewBox="0 0 49 48" fill="none" xmlns="http://www.w3.org/2000/svg">
<path d="M38.5376 41.088L35.844 38.3876C35.4384 37.981 34.7832 37.981 34.3776 38.3876L31.3824 41.3904C30.5712 42.2036 29.2504 42.2036 28.4392 41.3904L25.444 38.3876C25.0384 37.981 24.3832 37.981 23.9776 38.3876L20.9824 41.3904C20.1712 42.2036 18.8504 42.2036 18.0392 41.3904L15.044 38.3876C14.6384 37.981 13.9832 37.981 13.5776 38.3876L10.884 41.088C10.2288 41.7449 9.11084 41.2757 9.11084 40.3477V16.8003H40.3108V40.3477C40.3108 41.2757 39.1928 41.7449 38.5376 41.088Z" fill="#00BBFF"/>
<path d="M4.31104 13.2626V10.7378C4.31104 8.7842 5.99404 7.2002 8.06974 7.2002H41.3523C43.428 7.2002 45.111 8.7842 45.111 10.7378V13.2626C45.111 15.2162 43.428 16.8002 41.3523 16.8002H40.011V12.9602C40.011 12.4322 39.552 12.0002 38.991 12.0002H10.431C9.87004 12.0002 9.41104 12.4322 9.41104 12.9602V16.8002H8.06974C5.99404 16.8002 4.31104 15.2162 4.31104 13.2626Z" fill="#2B388F"/>
<path d="M40.3108 12.96V16.8H9.11084V12.96C9.11084 12.432 9.57884 12 10.1508 12H39.2708C39.8428 12 40.3108 12.432 40.3108 12.96Z" fill="#1F75FF"/>
<path d="M33.3508 22.8003H16.0708C15.5406 22.8003 15.1108 23.2301 15.1108 23.7603V24.2403C15.1108 24.7705 15.5406 25.2003 16.0708 25.2003H33.3508C33.881 25.2003 34.3108 24.7705 34.3108 24.2403V23.7603C34.3108 23.2301 33.881 22.8003 33.3508 22.8003Z" fill="#1F75FF"/>
<path d="M33.3508 30H16.0708C15.5406 30 15.1108 30.4298 15.1108 30.96V31.44C15.1108 31.9702 15.5406 32.4 16.0708 32.4H33.3508C33.881 32.4 34.3108 31.9702 34.3108 31.44V30.96C34.3108 30.4298 33.881 30 33.3508 30Z" fill="#1F75FF"/>
</svg>
