<svg width="48" height="49" viewBox="0 0 48 49" fill="none" xmlns="http://www.w3.org/2000/svg">
<path d="M42.6048 28.4178C42.6048 29.428 41.7868 30.2461 40.7765 30.2461C39.7663 30.2461 38.9482 29.428 38.9482 28.4178C38.9482 27.6687 39.3967 27.0281 40.0373 26.7472V19.1729H41.5157V26.7472C42.1564 27.033 42.6048 27.6737 42.6048 28.4178Z" fill="#00BBFF"/>
<path d="M40.934 18.2961C41.7028 18.646 41.7028 19.74 40.934 20.0899L35.5822 22.5243C26.8991 18.2862 18.3342 18.1138 9.96642 22.5243L4.61955 20.0899C3.85078 19.74 3.85078 18.646 4.61955 18.2961L21.9612 10.4113C22.4836 10.1748 23.0749 10.1748 23.5924 10.4113L40.9389 18.2961H40.934Z" fill="#00BBFF"/>
<path d="M35.5866 22.5244V35.1302C35.5866 35.5097 35.3648 35.8645 35.0198 36.0222C26.7112 39.9104 18.5209 40.0681 10.503 36.0321C10.1679 35.8645 9.96094 35.5196 9.96094 35.15V22.5244L21.9508 27.9748C22.4731 28.2113 23.0645 28.2113 23.5819 27.9748L35.5767 22.5244H35.5816H35.5866Z" fill="#2B388F"/>
<path d="M35.5816 22.5243L23.5868 27.9747C23.0694 28.2112 22.478 28.2112 21.9557 27.9747L9.96582 22.5243C18.3336 18.1138 26.8985 18.2862 35.5816 22.5243Z" fill="#1F75FF"/>
</svg>
