<svg width="48" height="48" viewBox="0 0 48 48" fill="none" xmlns="http://www.w3.org/2000/svg">
<path d="M17.6725 25.1236C17.1304 25.1187 16.7017 24.6801 16.6968 24.138V21.3044C17.4803 20.585 18.3674 19.9837 19.3332 19.5205V24.1479C19.3382 24.6949 18.8897 25.1384 18.3427 25.1335L17.6725 25.1236Z" fill="#1F75FF"/>
<path d="M16.6973 24.138C16.7022 24.68 17.1309 25.1186 17.673 25.1236L18.3432 25.1334C18.8902 25.1383 19.3387 24.6948 19.3387 24.1478V19.5204C20.7481 18.8453 22.3299 18.4658 24.0005 18.4658C25.6711 18.4658 27.2629 18.8453 28.6772 19.5253C28.8497 19.6091 29.0222 19.6978 29.1897 19.7915C29.3129 19.8555 29.4312 19.9245 29.5495 19.9984C30.1852 20.373 30.7717 20.8165 31.3137 21.3142C33.4673 23.2903 34.8175 26.1289 34.8175 29.2828C34.8175 35.2555 29.9733 40.0948 24.0005 40.0948C18.0278 40.0948 13.1836 35.2555 13.1836 29.2828C13.1836 26.1239 14.5388 23.2805 16.6973 21.3044V24.138Z" fill="#2B388F"/>
<path d="M31.3086 15.2081V21.3139C30.7715 20.8161 30.185 20.3726 29.5493 19.9981C29.431 19.9242 29.3127 19.8552 29.1895 19.7911C29.022 19.6975 28.8495 19.6088 28.677 19.525V15.213C28.6672 13.9662 28.1843 12.7884 27.2972 11.9014C26.4102 11.0144 25.2373 10.5413 23.9954 10.5462C22.7486 10.5462 21.5758 11.0341 20.6937 11.9211C19.8116 12.7983 19.3286 13.9761 19.3286 15.2229V19.5201C18.3676 19.9833 17.4806 20.5845 16.6971 21.304V15.2229C16.6823 11.1967 19.9594 7.90971 23.9905 7.90479C25.937 7.90479 27.7752 8.65384 29.1649 10.0288C30.5546 11.4283 31.3086 13.2615 31.3086 15.2081Z" fill="#00BBFF"/>
<path d="M24.9905 29.8638V32.1258C24.9905 32.6679 24.547 33.1114 24.0049 33.1114C23.4629 33.1114 23.0193 32.6679 23.0193 32.1258V29.8638C22.1175 29.4351 21.5311 28.4544 21.7233 27.3505C21.8859 26.4438 22.6004 25.6997 23.5023 25.5075C25.0004 25.1921 26.3211 26.3305 26.3211 27.7744C26.3211 28.7008 25.7741 29.4942 24.9905 29.8638Z" fill="#1F75FF"/>
</svg>
