<svg width="34" height="30" viewBox="0 0 34 30" fill="none" xmlns="http://www.w3.org/2000/svg">
<path d="M33.2207 1.78184V21.9923C33.2207 22.4616 32.8368 22.8455 32.3675 22.8455H11.9437L15.5482 19.5268C16.1198 19.0021 15.7487 18.0466 14.9723 18.0466H4.37226C3.90304 18.0466 3.51914 18.4306 3.51914 18.8998V22.8455H0.853124C0.37964 22.8455 0 22.4616 0 21.9923V1.78184C0 1.31262 0.37964 0.928711 0.853124 0.928711H32.3675C32.8368 0.928711 33.2207 1.31262 33.2207 1.78184Z" fill="#2B388F"/>
<path d="M14.9727 18.0479C15.7491 18.0479 16.1202 19.0033 15.5486 19.528L11.9441 22.8467H3.51953V18.901C3.51953 18.4318 3.90344 18.0479 4.37266 18.0479H14.9727Z" fill="#1E75FF"/>
<path d="M11.9441 22.8467L4.95278 29.2878C4.40678 29.7911 3.51953 29.4029 3.51953 28.6607V22.8467H11.9441Z" fill="#00BDFF"/>
</svg>
