<svg width="42" height="49" viewBox="0 0 42 49" fill="none" xmlns="http://www.w3.org/2000/svg">
<path d="M41.6746 41.5393V46.9672C41.6746 47.7406 41.0536 48.3607 40.2946 48.3607H1.37995C0.620979 48.3607 0 47.7406 0 46.9672V41.5393C0 32.5717 5.55431 24.9072 13.3855 21.8901C15.4279 23.5276 18.0222 24.51 20.8373 24.51C23.6524 24.51 26.2467 23.5276 28.289 21.8901C36.1203 24.9072 41.6746 32.5717 41.6746 41.5393Z" fill="#2B388F"/>
<path d="M20.837 0.289551C27.4608 0.289551 32.8288 5.71048 32.8288 12.3995C32.8288 16.2458 31.0555 19.6739 28.2887 21.8897C25.9773 20.9839 23.4658 20.4961 20.837 20.4961C18.2082 20.4961 15.6967 20.9839 13.3853 21.8897C10.6185 19.6739 8.84521 16.2458 8.84521 12.3995C8.84521 5.71048 14.2132 0.289551 20.837 0.289551Z" fill="#26A9E0"/>
<path d="M20.8375 20.4956C23.4663 20.4956 25.9778 20.9833 28.2892 21.8892C26.2469 23.5266 23.6526 24.509 20.8375 24.509C18.0224 24.509 15.4281 23.5266 13.3857 21.8892C15.6972 20.9833 18.2087 20.4956 20.8375 20.4956Z" fill="#1B75BB"/>
</svg>
