<svg width="48" height="48" viewBox="0 0 48 48" fill="none" xmlns="http://www.w3.org/2000/svg">
<path d="M39.2711 16.5728C40.0793 16.6911 40.4045 17.6866 39.8181 18.2533L36.4424 21.5452C33.8996 24.024 31.1842 26.3155 28.3112 28.4C26.9117 29.4201 25.4727 30.386 24.0041 31.3076C22.5307 30.3909 21.0917 29.4201 19.6872 28.4C16.8191 26.3155 14.1038 24.024 11.5609 21.5452L8.18526 18.2533C7.59882 17.6866 7.91914 16.6911 8.72734 16.5728L18.1595 15.2028C18.4799 15.1585 18.7558 14.9564 18.8987 14.6657L23.1171 6.12053C23.4768 5.38626 24.5216 5.38626 24.8863 6.12053L29.0997 14.6657C29.2475 14.9564 29.5235 15.1585 29.8438 15.2028L39.2711 16.5728Z" fill="#1F75FF"/>
<path d="M36.4432 21.5449L32.9985 24.9058C32.7669 25.1325 32.6585 25.4578 32.7127 25.7781L34.3241 35.1659C34.4621 35.9741 33.6194 36.5852 32.895 36.2057L28.721 34.0128C27.1145 33.1701 25.5424 32.2683 24.0049 31.3073C25.4734 30.3858 26.9124 29.4199 28.312 28.3998C31.185 26.3152 33.9003 24.0237 36.4432 21.5449Z" fill="#00BBFF"/>
<path d="M19.6858 28.3998C21.0903 29.4199 22.5293 30.3907 24.0028 31.3073C22.4603 32.2633 20.8883 33.1701 19.2818 34.0128L15.1077 36.2057C14.3833 36.5852 13.5406 35.9741 13.6786 35.1659L15.2901 25.7781C15.3443 25.4578 15.2359 25.1325 15.0042 24.9058L11.5596 21.5449C14.1024 24.0237 16.8177 26.3152 19.6858 28.3998Z" fill="#2B388F"/>
</svg>
