<svg width="48" height="49" viewBox="0 0 48 49" fill="none" xmlns="http://www.w3.org/2000/svg">
<path d="M41.0589 13.1809V17.6309C41.0589 19.267 39.5313 20.5976 37.6438 20.5976C37.5551 20.5976 37.4664 20.5927 37.3777 20.5877V14.1665C37.3777 13.6195 36.9391 13.1809 36.3921 13.1809H11.6043C11.0622 13.1809 10.6187 13.6195 10.6187 14.1665V20.5877C10.53 20.5927 10.4413 20.5976 10.3526 20.5976C8.47006 20.5976 6.94238 19.267 6.94238 17.6309V13.1809L8.16453 9.99746C8.45528 9.23362 9.18955 8.73096 10.0027 8.73096H37.9987C38.8118 8.73096 39.5461 9.23362 39.8368 9.99746L41.0589 13.1809Z" fill="#00BBFF"/>
<path d="M37.3792 20.5881V38.9992C37.3792 39.5413 36.9406 39.9848 36.3936 39.9848H11.6057C11.0636 39.9848 10.6201 39.5413 10.6201 38.9992V20.5881C12.3843 20.4699 13.7691 19.1886 13.7691 17.6313C13.7691 19.2674 15.2968 20.598 17.1793 20.598C19.0618 20.598 20.5895 19.2674 20.5895 17.6313C20.5895 19.2674 22.1171 20.598 23.9996 20.598C25.8821 20.598 27.4148 19.2674 27.4148 17.6313C27.4148 19.2674 28.9424 20.598 30.8249 20.598C32.7074 20.598 34.2351 19.2674 34.2351 17.6313C34.2351 19.1886 35.6199 20.4699 37.3792 20.5881Z" fill="#2B388F"/>
<path d="M37.3792 14.1663V20.5875C35.6199 20.4692 34.2351 19.1879 34.2351 17.6307C34.2351 19.2667 32.7074 20.5973 30.8249 20.5973C28.9424 20.5973 27.4148 19.2667 27.4148 17.6307C27.4148 19.2667 25.8871 20.5973 23.9996 20.5973C22.1122 20.5973 20.5895 19.2667 20.5895 17.6307C20.5895 19.2667 19.0618 20.5973 17.1793 20.5973C15.2968 20.5973 13.7691 19.2667 13.7691 17.6307C13.7691 19.1879 12.3843 20.4692 10.6201 20.5875V14.1663C10.6201 13.6193 11.0636 13.1807 11.6057 13.1807H36.3936C36.9406 13.1807 37.3792 13.6193 37.3792 14.1663Z" fill="#1F75FF"/>
<path d="M19.6751 26.8765H28.3188C28.8609 26.8765 29.3044 27.32 29.3044 27.8621V39.985H18.6895V27.8621C18.6895 27.32 19.133 26.8765 19.6751 26.8765Z" fill="#00BBFF"/>
</svg>
