<svg width="34" height="32" viewBox="0 0 34 32" fill="none" xmlns="http://www.w3.org/2000/svg">
<path d="M33.6259 1.13643V21.9825C33.6259 22.4987 33.1738 22.8954 32.6619 22.8314L22.7913 21.5389V12.547C22.7913 12.1161 22.4756 11.7536 22.049 11.6981L10.8347 10.2265V3.90055C10.8347 3.46972 11.1504 3.11141 11.5769 3.05596L32.6619 0.291836C33.1738 0.223586 33.6259 0.620289 33.6259 1.13643Z" fill="#00BDFF"/>
<path d="M22.7912 21.5385V27.8644C22.7912 28.2909 22.4756 28.6535 22.049 28.709L0.96403 31.4731C0.452156 31.5413 0 31.1446 0 30.6285V9.7824C0 9.26626 0.452156 8.86956 0.96403 8.93354L10.8347 10.226V19.218C10.8347 19.6488 11.1503 20.0114 11.5769 20.0668L22.7912 21.5385Z" fill="#2B388F"/>
<path d="M22.7915 12.548V21.54L11.5772 20.0683C11.1506 20.0129 10.835 19.6503 10.835 19.2195V10.2275L22.0493 11.6992C22.4758 11.7546 22.7915 12.1172 22.7915 12.548Z" fill="#1E75FF"/>
</svg>
