<svg width="28" height="26" viewBox="0 0 28 26" fill="none" xmlns="http://www.w3.org/2000/svg">
<path d="M0.092659 18.1147C-0.169786 18.568 0.157419 19.1372 0.682308 19.1372H15.4576L11.313 11.9626C11.0506 11.5093 11.3812 10.9401 11.9061 10.9401H16.8278L11.1222 1.05581C10.8597 0.602492 10.2053 0.602492 9.94285 1.05581L0.092659 18.1147Z" fill="#2B388F"/>
<path d="M11.9061 10.9404C11.3812 10.9404 11.0506 11.5096 11.313 11.9629L15.4576 19.1376H20.3793C20.9042 19.1376 21.2314 18.5684 20.9689 18.1151L16.8278 10.9404H11.9061Z" fill="#1E75FF"/>
<path d="M15.4576 19.1376L18.6546 24.6762C18.9171 25.1329 19.5715 25.1329 19.8339 24.6762L27.1756 11.9629C27.438 11.5096 27.1108 10.9404 26.5859 10.9404H16.8278L20.9689 18.1151C21.2314 18.5684 20.9042 19.1376 20.3793 19.1376H15.4576Z" fill="#00BDFF"/>
</svg>
