<svg width="32" height="32" viewBox="0 0 32 32" fill="none" xmlns="http://www.w3.org/2000/svg">
<path d="M31.7661 4.13184V7.9709H28.4005V30.2545C28.4005 30.7237 28.0209 31.1076 27.5474 31.1076H4.21443C3.74522 31.1076 3.36131 30.7237 3.36131 30.2545V7.9709H0V4.13184H13.9614V8.39319C13.9614 8.86241 14.3453 9.24632 14.8145 9.24632H16.9473C17.4208 9.24632 17.8004 8.86241 17.8004 8.39319V4.13184H31.7661Z" fill="#2B388F"/>
<path d="M17.8 4.13184V8.39319C17.8 8.86241 17.4204 9.24632 16.9469 9.24632H14.8141C14.3448 9.24632 13.9609 8.86241 13.9609 8.39319V4.13184H17.8Z" fill="#1E75FF"/>
<path d="M17.8 1.1373V4.13177H13.9609V1.1373C13.9609 0.668086 14.3448 0.28418 14.8141 0.28418H16.9469C17.4204 0.28418 17.8 0.668086 17.8 1.1373Z" fill="#00BDFF"/>
<path d="M14.8193 12.8291H16.9521C17.4213 12.8291 17.8052 13.213 17.8052 13.6822V26.9568C17.8052 27.4261 17.4213 27.81 16.9521 27.81H14.8193C14.3501 27.81 13.9662 27.4261 13.9662 26.9568V13.6822C13.9662 13.213 14.3501 12.8291 14.8193 12.8291ZM20.8168 13.6822V26.9568C20.8168 27.4261 21.2007 27.81 21.6699 27.81H23.8027C24.2719 27.81 24.6558 27.4261 24.6558 26.9568V13.6822C24.6558 13.213 24.2719 12.8291 23.8027 12.8291H21.6699C21.2007 12.8291 20.8168 13.213 20.8168 13.6822ZM7.96445 27.81H10.0973C10.5665 27.81 10.9504 27.4261 10.9504 26.9568V13.6822C10.9504 13.213 10.5665 12.8291 10.0973 12.8291H7.96445C7.49523 12.8291 7.11133 13.213 7.11133 13.6822V26.9568C7.11133 27.4261 7.49523 27.81 7.96445 27.81Z" fill="#00BDFF"/>
</svg>
