<svg width="31" height="48" viewBox="0 0 31 48" fill="none" xmlns="http://www.w3.org/2000/svg">
<path d="M3.96729 23.6801C4.88541 22.5443 5.97354 21.5446 7.18411 20.7217L9.30599 26.0604C9.58483 26.7609 9.24478 27.5498 8.54429 27.8286L7.27933 28.3319C6.57883 28.6039 5.78994 28.2639 5.51111 27.5702L3.96729 23.6801Z" fill="#1F75FF"/>
<path d="M9.30691 26.0604L7.18503 20.7216C9.57215 19.0962 12.4558 18.1509 15.5638 18.1509C23.8065 18.1509 30.4918 24.8294 30.4918 33.0789C30.4918 41.3284 23.8065 48.0001 15.5638 48.0001C7.32109 48.0001 0.635742 41.3216 0.635742 33.0789C0.635742 29.5084 1.88713 26.244 3.96821 23.68L5.51203 27.5702C5.79087 28.2638 6.57976 28.6039 7.28025 28.3319L8.54521 27.8286C9.24571 27.5498 9.58575 26.7608 9.30691 26.0604Z" fill="#2B388F"/>
<path d="M3.9674 23.6799L0.832188 15.7704C-1.40531 10.1257 0.995401 3.54919 6.51775 1.03285C9.44894 -0.306929 12.7338 -0.340943 15.6922 0.917227C18.4806 2.14139 20.616 4.34489 21.7246 7.14006L23.112 10.6425C23.3908 11.3362 23.044 12.1252 22.3503 12.404L21.0853 12.9073C20.3848 13.1861 19.596 12.8392 19.3171 12.1456L17.9297 8.64306C17.2224 6.85442 15.8486 5.44665 14.0736 4.66454C12.3121 3.91644 10.3467 3.88923 8.55802 4.59653C6.66737 5.34463 5.21197 6.82042 4.47747 8.73148C3.80418 10.4861 3.90622 12.4448 4.59312 14.1926L7.18422 20.7215C5.97366 21.5444 4.88553 22.5441 3.9674 23.6799Z" fill="#00BBFF"/>
<path d="M16.9295 33.8745V36.9962C16.9295 37.7443 16.3174 38.3563 15.5693 38.3563C14.8212 38.3563 14.2091 37.7443 14.2091 36.9962V33.8745C12.9646 33.2829 12.1553 31.9295 12.4205 30.4061C12.6449 29.1547 13.631 28.1278 14.8756 27.8625C16.9431 27.4273 18.7657 28.9983 18.7657 30.991C18.7657 32.2695 18.0109 33.3645 16.9295 33.8745Z" fill="#1F75FF"/>
</svg>
