<svg width="48" height="49" viewBox="0 0 48 49" fill="none" xmlns="http://www.w3.org/2000/svg">
<path d="M18.689 15.0088H29.3137V18.3155C29.3137 18.8625 28.8702 19.3011 28.3281 19.3011H19.6746C19.1325 19.3011 18.689 18.8625 18.689 18.3155V15.0088Z" fill="#1F75FF"/>
<path d="M19.6736 19.3011H28.3271C28.8692 19.3011 29.3127 18.8625 29.3127 18.3155V15.0088H30.5595C32.1956 15.0088 33.5163 16.3344 33.5163 17.9656V38.4119C33.5163 40.043 32.1956 41.3687 30.5595 41.3687H17.4412C15.8051 41.3687 14.4844 40.043 14.4844 38.4119V17.9656C14.4844 16.3344 15.8051 15.0088 17.4412 15.0088H18.688V18.3155C18.688 18.8625 19.1315 19.3011 19.6736 19.3011Z" fill="#2B388F"/>
<path d="M18.689 15.0083V8.91236C18.689 8.36535 19.1325 7.92676 19.6746 7.92676H28.3281C28.8702 7.92676 29.3137 8.36535 29.3137 8.91236V15.0083H18.689Z" fill="#00BBFF"/>
<path d="M22.2212 10.5186V13.0072" stroke="#2B388F" stroke-width="2" stroke-linejoin="round"/>
<path d="M25.7837 10.5439V13.0326" stroke="#2B388F" stroke-width="2" stroke-linejoin="round"/>
</svg>
