<svg width="32" height="31" viewBox="0 0 32 31" fill="none" xmlns="http://www.w3.org/2000/svg">
<path d="M32 8.51779V29.3993C32 29.8769 31.6127 30.2599 31.1394 30.2599H0.860562C0.38295 30.2599 0 29.8769 0 29.3993V8.51779C0 8.04448 0.38295 7.65723 0.860562 7.65723H3.25723L1.9965 16.5683C1.94487 16.9169 2.19013 17.2396 2.53866 17.2912L11.9919 18.6294L17.5942 19.4254L27.0475 20.7679C27.396 20.8152 27.7187 20.5743 27.7703 20.2214L29.5517 7.65723H31.1394C31.6127 7.65723 32 8.04448 32 8.51779Z" fill="#2B388F"/>
<path d="M29.4566 3.76342C29.8052 3.81505 30.0504 4.13776 29.9988 4.48629L29.5513 7.65746H22.0945C21.3286 7.65746 20.6531 8.16519 20.4466 8.90097C19.9044 10.8501 18.1187 12.2744 15.9975 12.2744C13.8762 12.2744 12.0905 10.8501 11.5484 8.90097C11.3418 8.16519 10.6663 7.65746 9.90037 7.65746H3.25684L4.22497 0.833202C4.2766 0.484674 4.59931 0.239414 4.95214 0.291048L29.4566 3.76342Z" fill="#00BDFF"/>
<path d="M29.5513 7.65723L27.77 20.2214C27.7183 20.5743 27.3956 20.8152 27.0471 20.7679L17.5938 19.4254L11.9916 18.6294L2.53828 17.2912C2.18975 17.2396 1.94449 16.9169 1.99613 16.5683L3.25685 7.65723H9.90039C10.6663 7.65723 11.3418 8.16496 11.5484 8.90074C12.0905 10.8499 13.8762 12.2741 15.9975 12.2741C18.1188 12.2741 19.9044 10.8499 20.4466 8.90074C20.6531 8.16496 21.3287 7.65723 22.0946 7.65723H29.5513Z" fill="#1E75FF"/>
</svg>
