<svg width="13" height="20" viewBox="0 0 13 20" fill="none" xmlns="http://www.w3.org/2000/svg">
<path d="M11.8606 3.2016C11.351 2.22484 10.6413 1.44599 9.72849 0.868231C8.81886 0.287282 7.79634 0 6.6706 0H5.95451C4.82554 0 3.80624 0.290474 2.89661 0.868231C1.98699 1.44918 1.27412 2.22484 0.764474 3.2016C0.254824 4.17836 0 5.25727 0 6.43832V7.79174H2.53857V6.43832C2.53857 5.25727 2.85145 4.26455 3.48368 3.46016C4.11267 2.65577 4.93521 2.25357 5.95773 2.25357H6.67382C7.69312 2.25357 8.51888 2.65577 9.14788 3.46016C9.77688 4.26455 10.093 5.25727 10.093 6.43832V7.79174H12.6316V6.43832C12.6316 5.25727 12.3767 4.17836 11.8671 3.2016H11.8606Z" fill="#ABB6BA"/>
<path d="M0 13.5254C0 14.7065 0.254824 15.7854 0.764474 16.7622C1.27412 17.7389 1.98376 18.5178 2.89661 19.0955C3.80947 19.6765 4.82876 19.9638 5.95451 19.9638H6.6706C7.79957 19.9638 8.81886 19.6733 9.72849 19.0955C10.6413 18.5146 11.351 17.7389 11.8606 16.7622C12.3703 15.7854 12.6251 14.7065 12.6251 13.5254H10.0865C10.0865 14.7065 9.77042 15.6992 9.14143 16.5036C8.51243 17.308 7.68667 17.7102 6.66737 17.7102H5.95128C4.93198 17.7102 4.10622 17.308 3.47723 16.5036C2.84823 15.6992 2.53212 14.7065 2.53212 13.5254V10.3047H0V13.5254Z" fill="#ABB6BA"/>
<path d="M12.6245 7.79297H10.0859V10.3051H12.6245V7.79297Z" fill="white"/>
<path d="M10.0851 7.78906H2.53711V10.3012H10.0851V7.78906Z" fill="#D1D8DB"/>
<path d="M2.53857 7.79297H0V10.3051H2.53857V7.79297Z" fill="white"/>
</svg>
