<svg width="168" height="33" viewBox="0 0 168 33" fill="none" xmlns="http://www.w3.org/2000/svg">
<path d="M43.589 22.9463C44.2503 22.3557 44.5825 21.6088 44.5825 20.7087C44.5825 20 44.3922 19.4191 44.0116 18.969C43.631 18.5189 43.1697 18.1582 42.6278 17.8901C42.0859 17.622 41.2827 17.2836 40.2183 16.875C39.1119 16.4473 38.2055 16.0323 37.5023 15.6365C36.7959 15.2407 36.1991 14.6917 35.7121 13.9926C35.225 13.2968 34.9798 12.4094 34.9798 11.3369C34.9798 9.72808 35.5056 8.45447 36.5572 7.52239C37.6087 6.58713 38.9603 6.12109 40.6086 6.12109H40.9989C42.1278 6.12109 43.1471 6.41157 44.0568 6.98932C44.9664 7.57027 45.6793 8.34594 46.1889 9.3227C46.6986 10.2995 46.9534 11.3784 46.9534 12.5594H44.4148C44.4148 11.3784 44.0987 10.3856 43.4697 9.58125C42.8407 8.77686 42.0149 8.37466 40.9956 8.37466H40.6053C39.6957 8.37466 38.9506 8.64279 38.3764 9.17906C37.8023 9.71532 37.5152 10.392 37.5152 11.206C37.5152 12.087 37.8087 12.7637 38.3926 13.2361C38.9796 13.7085 39.8667 14.181 41.0602 14.6534L41.744 14.9119C42.8923 15.3429 43.8277 15.7546 44.5406 16.1504C45.2567 16.5494 45.8631 17.1049 46.3631 17.8263C46.8631 18.5445 47.1114 19.4638 47.1114 20.581C47.1114 21.6982 46.8469 22.6749 46.3147 23.5113C45.7825 24.3476 45.0664 24.986 44.1664 25.4265C43.2665 25.867 42.2633 26.0872 41.1569 26.0872H40.4408C39.3119 26.0872 38.2926 25.7967 37.3829 25.219C36.4733 24.638 35.7604 23.8624 35.2508 22.8856C34.7412 21.9089 34.4863 20.83 34.4863 19.6489H37.0249C37.0249 20.83 37.3378 21.8227 37.97 22.6271C38.599 23.4315 39.4215 23.8337 40.4441 23.8337H41.1601C42.1149 23.8337 42.9213 23.54 43.5858 22.9495L43.589 22.9463Z" fill="#ABB6BA"/>
<path d="M51.5742 16.1005V6.44141H54.1128V15.877L57.0739 23.5092H59.2544L61.9865 15.877V6.44141H64.5251V16.1005L60.9769 25.7596H59.448V32.2011H56.9094V25.7596H55.4127L51.5742 16.1005Z" fill="#ABB6BA"/>
<path d="M155.049 16.1005V6.44141H157.587V15.877L160.549 23.5092H162.729L165.461 15.877V6.44141H168V16.1005L164.452 25.7596H162.923V32.2011H160.384V25.7596H158.887L155.049 16.1005Z" fill="#ABB6BA"/>
<path d="M59.4526 23.5039H56.9141V32.199H59.4526V23.5039Z" fill="#D1D8DB"/>
<path d="M106.891 8.94922V19.3169C106.891 20.498 107.145 21.5769 107.655 22.5536C108.165 23.5304 108.874 24.3093 109.787 24.887C110.697 25.468 111.716 25.7552 112.845 25.7552H116.426V23.5017H112.845C111.826 23.5017 111 23.0995 110.371 22.2951C109.742 21.4907 109.429 20.498 109.429 19.3169V8.94922H106.891Z" fill="#D1D8DB"/>
<path d="M109.429 2.89844H106.891V6.44159H109.429V2.89844Z" fill="#D1D8DB"/>
<path d="M106.896 6.44141H102.957V8.95353H106.896V6.44141Z" fill="#ABB6BA"/>
<path d="M116.426 6.44141H109.43V8.95353H116.426V6.44141Z" fill="#ABB6BA"/>
<path d="M93.8114 0H89.2891V2.25357H93.8114V0Z" fill="#ABB6BA"/>
<path d="M93.814 8.94922H91.2754V23.2463H93.814V8.94922Z" fill="#D1D8DB"/>
<path d="M98.7896 23.2461H93.8125V25.7582H98.7896V23.2461Z" fill="#ABB6BA"/>
<path d="M91.2749 23.2461H86.3945V25.7582H91.2749V23.2461Z" fill="#ABB6BA"/>
<path d="M93.814 23.2461H91.2754V25.7582H93.814V23.2461Z" fill="white"/>
<path d="M91.2742 6.44141H86.3906V8.95353H91.2742V6.44141Z" fill="#ABB6BA"/>
<path d="M93.814 6.44141H91.2754V8.95353H93.814V6.44141Z" fill="white"/>
<path d="M109.429 6.44141H106.891V8.95353H109.429V6.44141Z" fill="white"/>
<path d="M59.4526 23.5039H56.9141V25.7575H59.4526V23.5039Z" fill="white"/>
<path d="M162.925 23.5039H160.387V32.199H162.925V23.5039Z" fill="#D1D8DB"/>
<path d="M162.925 23.5039H160.387V25.7575H162.925V23.5039Z" fill="white"/>
<path d="M69.1504 19.9492V25.7651H71.689V24.6862C70.1955 23.569 69.1504 21.7399 69.1504 19.9492Z" fill="#D1D8DB"/>
<path d="M71.689 7.19483V0H69.1504V11.9318C69.1504 10.1411 70.1955 8.31204 71.689 7.19483Z" fill="#D1D8DB"/>
<path d="M76.7046 6.12109H74.7015C73.6242 6.12109 72.5758 6.53286 71.6855 7.2V11.937C71.6855 10.392 73.2919 8.63322 74.7015 8.63322H76.7046C78.04 8.63322 79.0755 10.408 79.0755 11.937V19.949C79.0755 21.4939 77.4691 23.2527 76.0595 23.2527H74.7047C73.2951 23.2527 71.6888 21.4939 71.6888 19.949V24.6859C72.579 25.3499 73.6241 25.7648 74.7047 25.7648H76.0595C78.9497 25.7648 81.614 22.809 81.614 19.949V11.937C81.614 9.07691 79.5948 6.12109 76.7046 6.12109Z" fill="#ABB6BA"/>
<path d="M71.689 11.9323V7.19531C70.1955 8.31252 69.1504 10.1416 69.1504 11.9323V19.9443C69.1504 21.735 70.1955 23.564 71.689 24.6812V11.9323Z" fill="white"/>
<path d="M122.119 12.2573V6.44141H124.658V7.52031C123.164 8.63752 122.119 10.4666 122.119 12.2573Z" fill="#D1D8DB"/>
<path d="M124.658 25.0065V32.2013H122.119V20.2695C122.119 22.0603 123.164 23.8893 124.658 25.0065Z" fill="#D1D8DB"/>
<path d="M129.673 26.0851H127.67C126.593 26.0851 125.545 25.6734 124.654 25.0062V20.2693C124.654 21.8142 126.261 23.573 127.67 23.573H129.673C131.009 23.573 132.044 21.7982 132.044 20.2693V12.2573C132.044 10.7123 130.438 8.95353 129.028 8.95353H127.673C126.264 8.95353 124.658 10.7123 124.658 12.2573V7.52031C125.548 6.85637 126.593 6.44141 127.673 6.44141H129.028C131.918 6.44141 134.583 9.39722 134.583 12.2573V20.2693C134.583 23.1293 132.564 26.0851 129.673 26.0851Z" fill="#ABB6BA"/>
<path d="M124.658 20.2685V25.0055C123.164 23.8882 122.119 22.0592 122.119 20.2685V12.2565C122.119 10.4658 123.164 8.63674 124.658 7.51953V20.2685Z" fill="white"/>
<path d="M151.046 12.2573V6.44141H148.508V7.52031C150.001 8.63752 151.046 10.4666 151.046 12.2573Z" fill="#D1D8DB"/>
<path d="M148.508 25.0065V26.0854H151.046V20.2695C151.046 22.0603 150.001 23.8893 148.508 25.0065Z" fill="#D1D8DB"/>
<path d="M143.493 26.0851H145.497C146.574 26.0851 147.622 25.6734 148.512 25.0062V20.2693C148.512 21.8142 146.906 23.573 145.497 23.573H143.493C142.158 23.573 141.123 21.7982 141.123 20.2693V12.2573C141.123 10.7123 142.729 8.95353 144.139 8.95353H145.493C146.903 8.95353 148.509 10.7123 148.509 12.2573V7.52031C147.619 6.85637 146.574 6.44141 145.493 6.44141H144.139C141.248 6.44141 138.584 9.39722 138.584 12.2573V20.2693C138.584 23.1293 140.603 26.0851 143.493 26.0851Z" fill="#ABB6BA"/>
<path d="M148.508 20.2685V25.0055C150.001 23.8882 151.046 22.0592 151.046 20.2685V12.2565C151.046 10.4658 150.001 8.63674 148.508 7.51953V20.2685Z" fill="white"/>
<path d="M29.7866 12.2573V6.44141H27.248V7.52031C28.7415 8.63752 29.7866 10.4666 29.7866 12.2573Z" fill="#D1D8DB"/>
<path d="M27.248 25.0065V26.0854H29.7866V20.2695C29.7866 22.0603 28.7415 23.8893 27.248 25.0065Z" fill="#D1D8DB"/>
<path d="M22.2336 26.0851H24.2367C25.3141 26.0851 26.3624 25.6734 27.2527 25.0062V20.2693C27.2527 21.8142 25.6463 23.573 24.2367 23.573H22.2336C20.8982 23.573 19.8628 21.7982 19.8628 20.2693V12.2573C19.8628 10.7123 21.4691 8.95353 22.8787 8.95353H24.2335C25.6431 8.95353 27.2495 10.7123 27.2495 12.2573V7.52031C26.3592 6.85637 25.3141 6.44141 24.2335 6.44141H22.8787C19.9886 6.44141 17.3242 9.39722 17.3242 12.2573V20.2693C17.3242 23.1293 19.3435 26.0851 22.2336 26.0851Z" fill="#ABB6BA"/>
<path d="M27.248 20.2685V25.0055C28.7415 23.8882 29.7866 22.0592 29.7866 20.2685V12.2565C29.7866 10.4658 28.7415 8.63674 27.248 7.51953V20.2685Z" fill="white"/>
<path d="M11.8606 9.3227C11.351 8.34594 10.6413 7.56708 9.72849 6.98932C8.81886 6.40838 7.79634 6.12109 6.6706 6.12109H5.95451C4.82554 6.12109 3.80624 6.41157 2.89661 6.98932C1.98699 7.57027 1.27412 8.34594 0.764474 9.3227C0.254824 10.2995 0 11.3784 0 12.5594V13.9128H2.53857V12.5594C2.53857 11.3784 2.85145 10.3856 3.48368 9.58125C4.11267 8.77686 4.93521 8.37466 5.95773 8.37466H6.67382C7.69312 8.37466 8.51888 8.77686 9.14788 9.58125C9.77688 10.3856 10.093 11.3784 10.093 12.5594V13.9128H12.6316V12.5594C12.6316 11.3784 12.3767 10.2995 11.8671 9.3227H11.8606Z" fill="#ABB6BA"/>
<path d="M0 19.6465C0 20.8276 0.254824 21.9065 0.764474 22.8833C1.27412 23.86 1.98376 24.6389 2.89661 25.2166C3.80947 25.7976 4.82876 26.0849 5.95451 26.0849H6.6706C7.79957 26.0849 8.81886 25.7944 9.72849 25.2166C10.6413 24.6357 11.351 23.86 11.8606 22.8833C12.3703 21.9065 12.6251 20.8276 12.6251 19.6465H10.0865C10.0865 20.8276 9.77042 21.8203 9.14143 22.6247C8.51243 23.4291 7.68667 23.8313 6.66737 23.8313H5.95128C4.93198 23.8313 4.10622 23.4291 3.47723 22.6247C2.84823 21.8203 2.53212 20.8276 2.53212 19.6465V16.4258H0V19.6465Z" fill="#ABB6BA"/>
<path d="M12.6245 13.9141H10.0859V16.4262H12.6245V13.9141Z" fill="white"/>
<path d="M10.0851 13.9102H2.53711V16.4223H10.0851V13.9102Z" fill="#D1D8DB"/>
<path d="M2.53857 13.9141H0V16.4262H2.53857V13.9141Z" fill="white"/>
</svg>
