<svg width="44" height="48" viewBox="0 0 44 48" fill="none" xmlns="http://www.w3.org/2000/svg">
<path d="M43.3752 40.9694V46.5637C43.3752 47.3608 42.7289 47.9999 41.939 47.9999H1.43627C0.64632 47.9999 0 47.3608 0 46.5637V40.9694C0 32.1723 5.24239 24.596 12.7684 21.1992C15.0305 23.5188 18.1904 24.9551 21.6877 24.9551C25.185 24.9551 28.3447 23.5188 30.6068 21.1992C38.1329 24.596 43.3752 32.1723 43.3752 40.9694Z" fill="#2B388F"/>
<path d="M21.6878 0C28.5819 0 34.169 5.58708 34.169 12.4812C34.169 15.8779 32.8116 18.9515 30.607 21.1993C27.8853 19.9641 24.8691 19.2819 21.6878 19.2819C18.5065 19.2819 15.4903 19.9641 12.7686 21.1993C10.5639 18.9515 9.20667 15.8779 9.20667 12.4812C9.20667 5.58708 14.7937 0 21.6878 0Z" fill="#00BBFF"/>
<path d="M30.6072 21.1987C28.3451 23.5182 25.1853 24.9545 21.688 24.9545C18.1907 24.9545 15.0309 23.5182 12.7688 21.1987C15.4905 19.9635 18.5067 19.2812 21.688 19.2812C24.8694 19.2812 27.8855 19.9635 30.6072 21.1987Z" fill="#1F75FF"/>
</svg>
